<svg xmlns="http://www.w3.org/2000/svg" viewBox="0 0 1240 900" font-family="Arial, Helvetica, sans-serif">
  <!-- Hi-fi finalist — Option C: Aligned Side-by-Side Comparison Grid (desktop, lg >= 1024px) -->
  <!-- Runner-up: loses to Option A because this layout degenerates into Option A below 768px. -->
  <!-- Palette: Blue #0173B2, Orange #e8e0c7, Teal #ced6dc, Purple #cccbdd, Brown #CA9161, Gray #cfcecb -->
  <!-- Band colours are always paired with a text label — never colour alone. -->

  <rect x="0" y="0" width="1240" height="900" fill="#FFFFFF" />
  <rect x="4" y="4" width="1232" height="892" fill="none" stroke="#000000" stroke-width="2" />

  <!-- Top bar -->
  <rect x="4" y="4" width="1232" height="56" fill="#FFFFFF" stroke="#000000" stroke-width="1" />
  <text x="28" y="24" font-size="13" fill="#000000">Tools &#8250; AI Benchmark</text>
  <text x="1032" y="24" font-size="13" fill="#000000">EN | ID</text>
  <text x="1130" y="24" font-size="13" fill="#000000">&#9728; / &#9789;</text>
  <text x="28" y="48" font-size="13" fill="#000000">apps/ayokoding-www &#8226; /tools/ai-benchmark</text>

  <text x="28" y="98" font-size="24" font-weight="bold" fill="#000000"># AI Model Benchmark &#8212; Aligned Comparison</text>
  <text x="28" y="122" font-size="13" fill="#000000">Data as of 2026-07-28 &#183; capability and price share one row per model (8-model sample)</text>

  <!-- Filters -->
  <rect x="20" y="136" width="1200" height="40" fill="#FFFFFF" stroke="#000000" stroke-width="1" />
  <text x="36" y="161" font-size="13" fill="#000000">Harness: [ All &#9662; ]</text>
  <text x="220" y="161" font-size="13" fill="#000000">Class: [ All &#9662; ]</text>
  <text x="1184" y="161" font-size="13" fill="#000000" text-anchor="end">8 of 8 models shown</text>

  <!-- Column headers -->
  <rect x="20" y="184" width="1200" height="32" fill="#F2F2F2" stroke="#000000" stroke-width="1" />
  <text x="36" y="205" font-size="13" font-weight="bold" fill="#000000">Model</text>
  <text x="260" y="205" font-size="13" font-weight="bold" fill="#000000">Capability index (0&#8211;100)</text>
  <text x="700" y="205" font-size="13" font-weight="bold" fill="#000000">Price USD / 1M tokens &#8212; in &#9475; out</text>

  <!-- band rule: OPUS -->
  <rect x="20" y="220" width="1200" height="4" fill="#cccbdd" />
  <text x="28" y="242" font-size="13" font-weight="bold" fill="#cccbdd">OPUS &#8212; index &#8805; 99.4</text>

  <!-- row: GPT-5.6 Sol -->
  <line x1="20" y1="278" x2="1220" y2="278" stroke="#CCCCCC" stroke-width="1" />
  <text x="36" y="266" font-size="13" fill="#000000">GPT-5.6 Sol</text>
  <rect x="260" y="253" width="330" height="18" fill="#cccbdd" stroke="#000000" stroke-width="1" />
  <text x="598" y="266" font-size="12" fill="#000000">99.9</text>
  <rect x="700" y="253" width="35" height="18" fill="#cccbdd" stroke="#000000" stroke-width="1" />
  <text x="740" y="266" font-size="12" fill="#000000">$5.00</text>
  <rect x="800" y="253" width="210" height="18" fill="#cccbdd" stroke="#000000" stroke-width="1" opacity="0.55" />
  <text x="1015" y="266" font-size="12" fill="#000000">$30.00</text>

  <!-- row: Claude Opus 5 -->
  <line x1="20" y1="316" x2="1220" y2="316" stroke="#CCCCCC" stroke-width="1" />
  <text x="36" y="304" font-size="13" fill="#000000">Claude Opus 5</text>
  <rect x="260" y="291" width="327" height="18" fill="#cccbdd" stroke="#000000" stroke-width="1" />
  <text x="595" y="304" font-size="12" fill="#000000">99.4</text>
  <rect x="700" y="291" width="35" height="18" fill="#cccbdd" stroke="#000000" stroke-width="1" />
  <text x="740" y="304" font-size="12" fill="#000000">$5.00</text>
  <rect x="800" y="291" width="175" height="18" fill="#cccbdd" stroke="#000000" stroke-width="1" opacity="0.55" />
  <text x="980" y="304" font-size="12" fill="#000000">$25.00</text>

  <!-- band rule: SONNET -->
  <rect x="20" y="332" width="1200" height="4" fill="#ced6dc" />
  <text x="28" y="354" font-size="13" font-weight="bold" fill="#ced6dc">SONNET &#8212; 85.7 &#8804; index &lt; 99.4</text>

  <!-- row: Claude Fable 5 -->
  <line x1="20" y1="390" x2="1220" y2="390" stroke="#CCCCCC" stroke-width="1" />
  <text x="36" y="378" font-size="13" fill="#000000">Claude Fable 5</text>
  <rect x="260" y="365" width="325" height="18" fill="#ced6dc" stroke="#000000" stroke-width="1" />
  <text x="593" y="378" font-size="12" fill="#000000">98.2</text>
  <rect x="700" y="365" width="70" height="18" fill="#ced6dc" stroke="#000000" stroke-width="1" />
  <text x="775" y="378" font-size="12" fill="#000000">$10.00</text>
  <rect x="830" y="365" width="350" height="18" fill="#ced6dc" stroke="#000000" stroke-width="1" opacity="0.55" />
  <text x="1185" y="378" font-size="12" fill="#000000">$50</text>

  <!-- row: Claude Sonnet 5 -->
  <line x1="20" y1="428" x2="1220" y2="428" stroke="#CCCCCC" stroke-width="1" />
  <text x="36" y="416" font-size="13" fill="#000000">Claude Sonnet 5 &#8592;anchor</text>
  <rect x="260" y="403" width="283" height="18" fill="#ced6dc" stroke="#000000" stroke-width="1" />
  <text x="548" y="416" font-size="12" fill="#000000">85.7</text>
  <rect x="700" y="403" width="21" height="18" fill="#ced6dc" stroke="#000000" stroke-width="1" />
  <text x="726" y="416" font-size="12" fill="#000000">$3.00</text>
  <rect x="780" y="403" width="105" height="18" fill="#ced6dc" stroke="#000000" stroke-width="1" opacity="0.55" />
  <text x="890" y="416" font-size="12" fill="#000000">$15.00</text>

  <!-- band rule: LIGHT -->
  <rect x="20" y="444" width="1200" height="4" fill="#e8e0c7" />
  <text x="28" y="466" font-size="13" font-weight="bold" fill="#e8e0c7">LIGHT &#8212; index &lt; 85.7</text>

  <!-- row: Claude Haiku 4.5 -->
  <line x1="20" y1="502" x2="1220" y2="502" stroke="#CCCCCC" stroke-width="1" />
  <text x="36" y="490" font-size="13" fill="#000000">Claude Haiku 4.5</text>
  <rect x="260" y="477" width="227" height="18" fill="#e8e0c7" stroke="#000000" stroke-width="1" />
  <text x="492" y="490" font-size="12" fill="#000000">68.7</text>
  <rect x="700" y="477" width="7" height="18" fill="#e8e0c7" stroke="#000000" stroke-width="1" />
  <text x="712" y="490" font-size="12" fill="#000000">$1.00</text>
  <rect x="760" y="477" width="35" height="18" fill="#e8e0c7" stroke="#000000" stroke-width="1" opacity="0.55" />
  <text x="800" y="490" font-size="12" fill="#000000">$5.00</text>

  <!-- band rule: UNRATED -->
  <rect x="20" y="518" width="1200" height="4" fill="#cfcecb" />
  <text x="28" y="540" font-size="13" font-weight="bold" fill="#cfcecb">UNRATED &#8212; no published score</text>
  <text x="36" y="562" font-size="12" fill="#000000">MiMo v2.5 Pro &#183; grok-build-0.1 &#183; Gemini 3.5 Flash Lite &#8212; text list, no row bars</text>

  <!-- axis -->
  <line x1="260" y1="590" x2="590" y2="590" stroke="#000000" stroke-width="1" />
  <text x="260" y="608" font-size="11" fill="#000000">0</text>
  <text x="420" y="608" font-size="11" fill="#000000">50</text>
  <text x="580" y="608" font-size="11" fill="#000000">100 (index)</text>

  <!-- Note on responsive collapse -->
  <rect x="20" y="636" width="1200" height="130" fill="#FFFFFF" stroke="#000000" stroke-width="1" stroke-dasharray="6,4" />
  <text x="36" y="662" font-size="14" font-weight="bold" fill="#000000">Why this loses to Option A</text>
  <text x="36" y="686" font-size="12" fill="#000000">This side-by-side row alignment survives only at desktop (&#8805; 1024px). Below 768px the</text>
  <text x="36" y="706" font-size="12" fill="#000000">capability-index column and the price column cannot share a row — they must stack —</text>
  <text x="36" y="726" font-size="12" fill="#000000">which degenerates into Option A's stacked-panel layout, but after paying for a second</text>
  <text x="36" y="746" font-size="12" fill="#000000">layout path to build, test, and maintain. Option A recovers the same ordering guarantee</text>
  <text x="36" y="764" font-size="11" fill="#666666">(AC-11) natively, at every breakpoint, for a smaller implementation surface.</text>

  <text x="28" y="806" font-size="11" fill="#666666">Mockup only &#8212; sample of 8 of 39 models. Real page renders the full roster from &lt;DATA&gt;models.ts.</text>
  <text x="28" y="826" font-size="11" fill="#666666">Runner-up finalist: Option C &#8212; Aligned Side-by-Side Comparison Grid. See prd.md &#167;Narrow / &#167;Justify.</text>

  <!-- Mobile collapse indicator -->
  <rect x="20" y="840" width="1200" height="40" fill="#FFF6E5" stroke="#e8e0c7" stroke-width="1" />
  <text x="36" y="864" font-size="12" fill="#000000">MOBILE (&lt; 768px): the two columns cannot survive &#8212; they stack into Option A's layout.</text>
</svg>
