<svg xmlns="http://www.w3.org/2000/svg" width="1500" height="900" viewBox="0 0 1500 900" font-family="Helvetica, Arial, sans-serif"><rect width="1500" height="900" fill="#FFFFFF"/><text x="40" y="40" font-size="22" fill="#111827" font-weight="bold" text-anchor="start">Screen C — page composition and honesty surface</text><text x="40" y="64" font-size="14" fill="#6B7280" font-weight="normal" text-anchor="start">Option C1 — chart first, one visible honesty line, disclosures collapsed (SELECTED)</text><text x="60" y="114" font-size="17" fill="#111827" font-weight="bold" text-anchor="start">Mobile — 390 x 844</text><text x="60" y="132" font-size="12" fill="#6B7280" font-weight="normal" text-anchor="start">fold marked</text><rect x="60" y="140" width="330" height="620" rx="8" fill="#F9FAFB" stroke="#6B7280" stroke-width="2"/><rect x="76" y="158" width="298" height="54" rx="5" fill="#FFFFFF" stroke="#D1D5DB" stroke-width="1"/><text x="88" y="178" font-size="12" fill="#111827" font-weight="bold" text-anchor="start">AI Model Benchmark</text><text x="88" y="196" font-size="10" fill="#6B7280" font-weight="normal" text-anchor="start">Snapshot: 28 July 2026</text><rect x="76" y="220" width="298" height="56" rx="5" fill="#E69F0022" stroke="#E69F00" stroke-width="1"/><text x="88" y="240" font-size="12" fill="#111827" font-weight="bold" text-anchor="start">! Most frontier scores are</text><text x="88" y="258" font-size="10" fill="#6B7280" font-weight="normal" text-anchor="start">vendor self-reported.   ▸ More</text><rect x="76" y="284" width="298" height="40" rx="5" fill="#FFFFFF" stroke="#D1D5DB" stroke-width="1"/><text x="88" y="304" font-size="12" fill="#111827" font-weight="bold" text-anchor="start">[Harness ▾] [Class ▾]  38 models</text><rect x="76" y="332" width="298" height="150" rx="5" fill="#0072B222" stroke="#0072B2" stroke-width="1"/><text x="88" y="352" font-size="12" fill="#111827" font-weight="bold" text-anchor="start">CHART</text><text x="88" y="370" font-size="10" fill="#6B7280" font-weight="normal" text-anchor="start">first chart pixel here</text><line x1="60" y1="490" x2="390" y2="490" stroke="#D55E00" stroke-width="2" stroke-dasharray="6 4"/><text x="384" y="484" font-size="10" fill="#D55E00" font-weight="bold" text-anchor="end">fold (844 px)</text><rect x="76" y="500" width="298" height="90" rx="5" fill="#009E7322" stroke="#009E73" stroke-width="1"/><text x="88" y="520" font-size="12" fill="#111827" font-weight="bold" text-anchor="start">ROSTER (summary cards)</text><rect x="76" y="598" width="298" height="30" rx="5" fill="#F9FAFB" stroke="#D1D5DB" stroke-width="1"/><text x="88" y="618" font-size="12" fill="#111827" font-weight="bold" text-anchor="start">▸ Class and evidence-grade legend</text><rect x="76" y="636" width="298" height="30" rx="5" fill="#F9FAFB" stroke="#D1D5DB" stroke-width="1"/><text x="88" y="656" font-size="12" fill="#111827" font-weight="bold" text-anchor="start">▸ Sources and licences</text><text x="470" y="114" font-size="17" fill="#111827" font-weight="bold" text-anchor="start">Desktop — 1280 px</text><text x="470" y="132" font-size="12" fill="#6B7280" font-weight="normal" text-anchor="start">same order, more vertical budget</text><rect x="470" y="140" width="970" height="620" rx="8" fill="#F9FAFB" stroke="#6B7280" stroke-width="2"/><rect x="494" y="158" width="922" height="50" rx="5" fill="#FFFFFF" stroke="#D1D5DB" stroke-width="1"/><text x="506" y="178" font-size="12" fill="#111827" font-weight="bold" text-anchor="start">AI Model Benchmark   ·   Snapshot: 28 July 2026</text><rect x="494" y="216" width="922" height="46" rx="5" fill="#E69F0022" stroke="#E69F00" stroke-width="1"/><text x="506" y="236" font-size="12" fill="#111827" font-weight="bold" text-anchor="start">! Most frontier scores are vendor self-reported.</text><text x="506" y="254" font-size="10" fill="#6B7280" font-weight="normal" text-anchor="start">▾ More — open by default at lg</text><rect x="494" y="270" width="922" height="60" rx="5" fill="#F9FAFB" stroke="#D1D5DB" stroke-width="1"/><text x="506" y="290" font-size="12" fill="#111827" font-weight="bold" text-anchor="start">How to read (remaining 5 points, open at lg)</text><rect x="494" y="338" width="922" height="34" rx="5" fill="#FFFFFF" stroke="#D1D5DB" stroke-width="1"/><text x="506" y="358" font-size="12" fill="#111827" font-weight="bold" text-anchor="start">[Harness ▾]  [Class ▾]                                  38 models</text><rect x="494" y="380" width="922" height="150" rx="5" fill="#0072B222" stroke="#0072B2" stroke-width="1"/><text x="506" y="400" font-size="12" fill="#111827" font-weight="bold" text-anchor="start">CHART</text><rect x="494" y="538" width="922" height="90" rx="5" fill="#009E7322" stroke="#009E73" stroke-width="1"/><text x="506" y="558" font-size="12" fill="#111827" font-weight="bold" text-anchor="start">ROSTER (primary-column table)</text><rect x="494" y="636" width="455" height="30" rx="5" fill="#F9FAFB" stroke="#D1D5DB" stroke-width="1"/><text x="506" y="656" font-size="12" fill="#111827" font-weight="bold" text-anchor="start">▸ Legend</text><rect x="961" y="636" width="455" height="30" rx="5" fill="#F9FAFB" stroke="#D1D5DB" stroke-width="1"/><text x="973" y="656" font-size="12" fill="#111827" font-weight="bold" text-anchor="start">▸ Sources</text></svg>